<?xml version="1.0" encoding="UTF-8"?>
<svg width="32px" height="32px" viewBox="0 0 32 32" version="1.1" xmlns="http://www.w3.org/2000/svg" xmlns:xlink="http://www.w3.org/1999/xlink">
    <!-- Generator: Sketch 52.6 (67491) - http://www.bohemiancoding.com/sketch -->
    <title>_icons/avatar_32</title>
    <desc>Created with Sketch.</desc>
    <defs>
        <path d="M16.0039196,3.75171065 C15.2557894,3.75171065 14.5167939,3.89312338 13.7869108,4.17595308 C13.0570277,4.45878278 12.4001428,4.81915715 11.8162363,5.257087 C11.2323299,5.69501685 10.7624747,6.16943374 10.4066567,6.68035191 C10.0508387,7.19127007 9.87293232,7.67481036 9.87293232,8.13098729 L9.87293232,12.5102639 C9.87293232,13.3678766 10.0873323,14.4626848 10.5161386,15.7947214 C10.9449449,17.126758 11.6155149,18.1577024 12.5278688,18.8875855 C12.7650808,19.0700563 12.9429871,19.302703 13.0615931,19.5855327 C13.1801991,19.8683624 13.2212544,20.164873 13.1847603,20.4750733 C13.130019,20.7670265 13.0159765,21.0361669 12.8426293,21.2825024 C12.6692821,21.528838 12.4457587,21.7158677 12.1720526,21.8435973 L4.48094796,25.483871 C4.3714655,25.5203651 4.22092937,25.6070374 4.02933506,25.7438905 C3.83774075,25.8807436 3.74194503,26.1316371 3.74194503,26.4965787 L3.74194503,28.2756598 L28.2385237,28.2482893 L28.2385237,26.5513196 C28.2385237,26.0768956 28.1244812,25.7803851 27.8963927,25.6617791 C27.6683043,25.5431731 27.5451383,25.483871 27.5268913,25.483871 L19.8905276,21.8709677 C19.6168215,21.7432382 19.3887364,21.5562085 19.2062657,21.3098729 C19.0237949,21.0635374 18.9143141,20.7852736 18.8778199,20.4750733 C18.8413258,20.164873 18.8823811,19.8683624 19.0009871,19.5855327 C19.1195931,19.302703 19.2974994,19.0700563 19.5347114,18.8875855 C20.4835594,18.1577024 21.1541294,17.1221963 21.5464416,15.7810362 C21.9387538,14.439876 22.1349069,13.3496295 22.1349069,12.5102639 L22.1349069,8.13098729 C22.1349069,7.65656328 21.9524389,7.16389959 21.5874973,6.65298143 C21.2225558,6.14206326 20.7527006,5.67220807 20.1779177,5.24340176 C19.6031347,4.81459544 18.9462498,4.45878278 18.2072432,4.17595308 C17.4682365,3.89312338 16.7338027,3.75171065 16.0039196,3.75171065 Z M16.0039196,2 C16.9710147,2 17.9244102,2.18246804 18.8641347,2.54740958 C19.8038591,2.91235112 20.6432121,3.38676802 21.3822187,3.97067449 C22.1212254,4.55458096 22.7233699,5.21146588 23.1886703,5.94134897 C23.6539708,6.67123206 23.8866176,7.4011042 23.8866176,8.13098729 L23.8866176,12.5102639 C23.8866176,13.0394292 23.8318772,13.6506971 23.7223947,14.344086 C23.6129122,15.037475 23.4304442,15.7445386 23.1749851,16.4652981 C22.919526,17.1860577 22.5819602,17.8794362 22.1622774,18.5454545 C21.7425946,19.2114729 21.2316841,19.7816855 20.6295306,20.2561095 L28.2658942,23.8963832 L29.1280643,24.3753666 C29.7028472,24.6946904 29.9902344,25.1098052 29.9902344,25.6207234 L29.9902344,28.2756598 C29.9902344,28.7500838 29.8214514,29.1560752 29.4838805,29.4936461 C29.1463096,29.8312171 28.7403182,30 28.2658942,30 L3.74194503,30 C3.24927394,30 2.83415916,29.8312171 2.49658824,29.4936461 C2.15901731,29.1560752 1.99023438,28.7500838 1.99023438,28.2756598 L1.99023438,25.6207234 C1.99023438,25.1462994 2.28218323,24.740308 2.8660897,24.402737 L3.74194503,23.8963832 L11.4330496,20.2561095 C10.812649,19.7634384 10.2926151,19.1704173 9.87293232,18.4770283 C9.45324955,17.7836394 9.11112198,17.0765758 8.84653936,16.3558162 C8.58195674,15.6350567 8.394927,14.9325547 8.28544454,14.2482893 C8.17596208,13.5640239 8.12122167,12.9846879 8.12122167,12.5102639 L8.12122167,8.13098729 C8.12122167,7.4011042 8.34930671,6.67123206 8.80548364,5.94134897 C9.26166057,5.21146588 9.85924339,4.55458096 10.59825,3.97067449 C11.3372566,3.38676802 12.1811713,2.91235112 13.1300193,2.54740958 C14.0788673,2.18246804 15.0368245,2 16.0039196,2 Z" id="path-1"></path>
    </defs>
    <g id="_icons/avatar_32" stroke="none" stroke-width="1" fill="none" fill-rule="evenodd">
        <mask id="mask-2" fill="white">
            <use xlink:href="#path-1"></use>
        </mask>
        <use id="User---simple-line-icons" fill="#000000" xlink:href="#path-1"></use>
        <g id="_color/blau1_bpm" mask="url(#mask-2)" fill="#241D42">
            <rect id="Rectangle-Copy" x="0" y="0" width="32" height="32"></rect>
        </g>
    </g>
</svg>