<?xml version="1.0" encoding="UTF-8"?>
<svg width="32px" height="32px" viewBox="0 0 32 32" version="1.1" xmlns="http://www.w3.org/2000/svg" xmlns:xlink="http://www.w3.org/1999/xlink">
    <!-- Generator: Sketch 52.6 (67491) - http://www.bohemiancoding.com/sketch -->
    <title>_icons/kebap_32</title>
    <desc>Created with Sketch.</desc>
    <defs>
        <path d="M13.5,23.4801587 L13.5,22.9444444 C13.5,22.9312169 13.5033068,22.9113758 13.5099206,22.8849206 C13.5165344,22.8584655 13.526455,22.8386244 13.5396825,22.8253968 C13.619048,22.2566109 13.8703683,21.7705047 14.2936508,21.3670635 C14.7169333,20.9636223 15.2063464,20.7486774 15.7619048,20.7222222 C16.383601,20.6693119 16.9325373,20.8048926 17.4087302,21.1289683 C17.884923,21.4530439 18.2089938,21.9060817 18.3809524,22.4880952 C18.4074075,22.5542331 18.4305555,22.6269837 18.4503968,22.7063492 C18.4702382,22.7857147 18.4867724,22.865079 18.5,22.9444444 L18.5,23.4801587 C18.5,23.5066139 18.4966932,23.526455 18.4900794,23.5396825 L18.4603175,23.5992063 C18.380952,24.1150819 18.166007,24.5615061 17.8154762,24.9384921 C17.4649453,25.3154781 17.0317486,25.5568778 16.515873,25.6626984 C16.4761903,25.675926 16.4365081,25.6858465 16.3968254,25.6924603 C16.3571427,25.6990741 16.3174605,25.7089946 16.2777778,25.7222222 L15.7420635,25.7222222 C15.7156083,25.7222222 15.6957673,25.7189154 15.6825397,25.7123016 L15.6230159,25.6825397 C15.1071403,25.6031742 14.6673299,25.3915361 14.3035714,25.047619 C13.939813,24.703702 13.6984133,24.2804258 13.5793651,23.7777778 C13.5661375,23.7248675 13.5529101,23.6752648 13.5396825,23.6289683 C13.526455,23.5826717 13.5132276,23.533069 13.5,23.4801587 Z M18.5,8.24206349 L18.5,8.77777778 C18.5,8.79100536 18.4966932,8.81084643 18.4900794,8.83730159 C18.4834656,8.86375675 18.473545,8.88359782 18.4603175,8.8968254 C18.380952,9.46561131 18.1296317,9.95171756 17.7063492,10.3551587 C17.2830667,10.7585999 16.7870399,10.9735448 16.218254,11 C15.6097853,11.0396827 15.0641559,10.8974884 14.5813492,10.5734127 C14.0985426,10.249337 13.7711649,9.79629921 13.5992063,9.21428571 C13.5859788,9.14814782 13.5694445,9.07539722 13.5496032,8.99603175 C13.5297618,8.91666627 13.5132276,8.84391567 13.5,8.77777778 L13.5,8.24206349 C13.5,8.21560833 13.5033068,8.19576726 13.5099206,8.18253968 L13.5396825,8.12301587 C13.6322756,7.60714028 13.8273795,7.18055724 14.125,6.84325397 C14.4226205,6.50595069 14.8227488,6.2579373 15.3253968,6.09920635 C15.3915347,6.08597877 15.4576716,6.06944454 15.5238095,6.04960317 C15.5899474,6.02976181 15.6560843,6.01322758 15.7222222,6 L16.2777778,6 C16.2910054,6 16.3075396,6.00661369 16.327381,6.01984127 C16.3472223,6.03306885 16.3637565,6.03968254 16.3769841,6.03968254 C16.8928597,6.11904802 17.335977,6.33068611 17.7063492,6.67460317 C18.0767214,7.01852024 18.321428,7.44841012 18.4404762,7.96428571 C18.4404762,8.00396845 18.4470899,8.04695744 18.4603175,8.09325397 C18.473545,8.1395505 18.4867724,8.18915317 18.5,8.24206349 Z M18.5,15.5833333 L18.5,16.1388889 C18.5,16.1521165 18.4966932,16.1686507 18.4900794,16.1884921 C18.4834656,16.2083334 18.473545,16.2314813 18.4603175,16.2579365 C18.3677244,16.8267224 18.1064836,17.3128287 17.6765873,17.7162698 C17.246691,18.119711 16.753971,18.334656 16.1984127,18.3611111 C15.5634889,18.3875663 15.004632,18.2288377 14.5218254,17.8849206 C14.0390188,17.5410036 13.7248685,17.0780452 13.5793651,16.4960317 C13.5661375,16.4431214 13.5529101,16.3835982 13.5396825,16.3174603 C13.526455,16.2513224 13.5132276,16.1917992 13.5,16.1388889 L13.5,15.5833333 C13.5,15.5701058 13.5066137,15.5535715 13.5198413,15.5337302 C13.5330688,15.5138888 13.5396825,15.4907409 13.5396825,15.4642857 C13.619048,14.8954998 13.8769819,14.4093936 14.3134921,14.0059524 C14.7500022,13.6025112 15.246029,13.3875663 15.8015873,13.3611111 C16.4365111,13.334656 16.995368,13.4933845 17.4781746,13.8373016 C17.9609812,14.1812187 18.2751315,14.644177 18.4206349,15.2261905 C18.4338625,15.2791008 18.4470899,15.338624 18.4603175,15.4047619 C18.473545,15.4708998 18.4867724,15.530423 18.5,15.5833333 Z" id="path-1"></path>
    </defs>
    <g id="_icons/kebap_32" stroke="none" stroke-width="1" fill="none" fill-rule="evenodd">
        <mask id="mask-2" fill="white">
            <use xlink:href="#path-1"></use>
        </mask>
        <use id="Options-vertical---simple-line-icons" fill="#000000" xlink:href="#path-1"></use>
        <g id="_color/blau1_bpm" mask="url(#mask-2)" fill="#241D42">
            <rect id="Rectangle-Copy" x="0" y="0" width="32" height="32"></rect>
        </g>
    </g>
</svg>