<?xml version="1.0" encoding="UTF-8"?>
<svg width="32px" height="32px" viewBox="0 0 32 32" version="1.1" xmlns="http://www.w3.org/2000/svg" xmlns:xlink="http://www.w3.org/1999/xlink">
    <!-- Generator: Sketch 52.6 (67491) - http://www.bohemiancoding.com/sketch -->
    <title>_icons/rocket_32</title>
    <desc>Created with Sketch.</desc>
    <defs>
        <path d="M7.80825371,26.1059002 C7.91737426,25.8880473 8.03558643,25.6565822 8.16289374,25.4114977 C8.29020106,25.1664133 8.45387944,24.907717 8.65393379,24.6354009 L9.93609391,25.806354 C9.77241308,26.0786701 9.65420091,26.2965196 9.58145388,26.4599092 C9.50870684,26.6232989 9.42686765,26.8048402 9.33593385,27.0045386 C8.89945163,27.8941043 8.30839082,28.5884998 7.56273369,29.0877458 C6.81707655,29.5869919 5.28031844,29.8366112 2.95241325,29.8366112 L2.10673317,29.8638427 L2.07945316,28.9652042 C2.07945316,26.786676 2.30678424,25.32073 2.76145323,24.5673223 C3.21612221,23.8139146 3.9072087,23.2102897 4.83473343,22.7564297 C5.0711613,22.6475033 5.303039,22.5340399 5.53037349,22.4160363 C5.75770798,22.2980327 5.99867893,22.1391841 6.25329356,21.9394856 L7.31721366,23.301059 C7.00803875,23.5370662 6.70796173,23.7322231 6.41697358,23.8865356 C6.12598543,24.040848 5.86228137,24.1815425 5.6258535,24.3086233 C5.06206396,24.5809393 4.63468153,24.9167908 4.34369338,25.3161876 C4.05270523,25.7155845 3.88902685,26.6505222 3.85265333,28.1210287 C5.38034112,28.0665655 6.35331815,27.8623316 6.77161361,27.5083207 C7.18990907,27.1543099 7.53545232,26.686841 7.80825371,26.1059002 Z M21.311855,7.20726178 C22.2757532,7.20726178 23.0986918,7.54765172 23.7806952,8.22844181 C24.4626987,8.9092319 24.8036953,9.73070629 24.8036953,10.6928896 C24.8036953,11.6550729 24.4626987,12.4765473 23.7806952,13.1573374 C23.0986918,13.8381275 22.2757532,14.1785174 21.311855,14.1785174 C20.3479567,14.1785174 19.5250182,13.8381275 18.8430148,13.1573374 C18.1610113,12.4765473 17.8200147,11.6550729 17.8200147,10.6928896 C17.8200147,9.73070629 18.1610113,8.9092319 18.8430148,8.22844181 C19.5250182,7.54765172 20.3479567,7.20726178 21.311855,7.20726178 Z M21.311855,12.4357035 C21.7847107,12.4357035 22.1939067,12.2632393 22.5394551,11.9183056 C22.8850035,11.573372 23.0577752,11.1649041 23.0577752,10.6928896 C23.0577752,10.2208752 22.8850035,9.81240722 22.5394551,9.46747358 C22.1939067,9.12253993 21.7847107,8.9500757 21.311855,8.9500757 C20.8208125,8.9500757 20.4070699,9.12253993 20.0706149,9.46747358 C19.7341598,9.81240722 19.5659348,10.2208752 19.5659348,10.6928896 C19.5659348,11.1649041 19.7341598,11.573372 20.0706149,11.9183056 C20.4070699,12.2632393 20.8208125,12.4357035 21.311855,12.4357035 Z M30.0141758,2.850227 C30.0141758,2.90469021 30.0232691,3.25415721 30.0414558,3.89863849 C30.0596426,4.54311978 30.0414561,5.33282444 29.9868958,6.26777616 C29.9323355,7.20272788 29.8232166,8.2238977 29.6595358,9.33131624 C29.495855,10.4387348 29.2321509,11.4825973 28.8684157,12.462935 C28.5592408,13.2798831 28.2046043,14.0105868 27.8044956,14.6550681 C27.4043869,15.2995494 26.7678599,16.0030219 25.8948954,16.7655068 C25.2947324,17.3101389 24.3672216,17.9001481 23.1123352,18.5355522 C21.8574488,19.1709563 20.7389799,19.7700426 19.7568948,20.3328291 C19.3931597,20.5325275 19.0339766,20.7276844 18.6793347,20.9183056 C18.3246929,21.1089268 18.0382558,21.2768525 17.8200147,21.4220878 L17.8200147,25.9152799 C17.8200147,26.0423607 17.7927349,26.1649011 17.7381747,26.2829047 C17.6836144,26.4009083 17.6108684,26.4962175 17.5199346,26.5688351 L14.2736143,29.7821483 C14.2008673,29.8547659 14.1144815,29.9092283 14.0144543,29.9455371 C13.9144271,29.9818459 13.8098548,30 13.7007343,30 C13.6643608,30 13.6234412,29.9954615 13.5779743,29.9863843 C13.5325074,29.9773071 13.4915878,29.9636915 13.4552142,29.9455371 C13.3097202,29.9092283 13.1824148,29.8320732 13.0732942,29.7140696 C12.9641737,29.596066 12.8914277,29.4644485 12.8550542,29.3192133 L11.7911341,24.8260212 L9.8269739,22.6475038 C9.35411816,22.1210261 8.9631087,21.6898655 8.65393379,21.3540091 C8.34475888,21.0181527 8.10833456,20.7413022 7.94465372,20.5234493 L2.73417323,19.3252648 C2.57049239,19.288956 2.43409374,19.220878 2.32497319,19.1210288 C2.21585263,19.0211796 2.13401344,18.8986392 2.07945316,18.753404 C2.04307964,18.5900143 2.03853302,18.4357042 2.06581316,18.290469 C2.0930933,18.1452338 2.16129263,18.0181549 2.27041318,17.9092285 L5.46217349,14.4236006 C5.55310728,14.3328286 5.65313296,14.2647506 5.76225351,14.2193646 C5.87137407,14.1739786 5.98958623,14.151286 6.11689355,14.151286 L10.972734,14.151286 C11.1182281,13.8789699 11.2819065,13.5703497 11.4637741,13.2254161 C11.6456417,12.8804824 11.8275065,12.5173998 12.0093741,12.1361574 C12.4822299,11.1739741 12.9869049,10.1754969 13.5234143,9.14069597 C14.0599237,8.10589503 14.6100649,7.27080505 15.1738544,6.63540097 C15.8285777,5.85476167 16.5196642,5.20575152 17.2471346,4.68835105 C17.974605,4.17095058 18.7657171,3.75794412 19.6204948,3.44931928 C20.7844474,3.01361363 21.9392893,2.69137782 23.0850552,2.48260219 C24.230821,2.27382656 25.2583575,2.13767059 26.1676955,2.07413018 C27.0770334,2.01058977 27.8090395,1.98789711 28.3637357,2.00605151 L29.1957757,2.03328298 C29.4140169,2.05143738 29.6004283,2.1376695 29.7550158,2.29198192 C29.9096033,2.44629434 29.9959891,2.63237417 30.0141758,2.850227 Z M27.2316156,11.8366112 C27.4862302,11.146744 27.6862815,10.4160402 27.8317756,9.64447812 C27.9772697,8.87291602 28.0863886,8.11498109 28.1591356,7.37065059 C28.2318827,6.62632009 28.2728023,5.93646315 28.2818957,5.30105907 C28.290989,4.66565498 28.2955357,4.14826228 28.2955357,3.74886542 C27.9136137,3.74886542 27.4316718,3.76248102 26.8496955,3.78971263 C26.2677192,3.81694423 25.6175523,3.87594515 24.8991753,3.96671716 C24.1807983,4.05748918 23.4215125,4.18910662 22.6212951,4.36157344 C21.8210777,4.53404026 21.0208723,4.77458249 20.2206549,5.08320733 C19.4931845,5.33736896 18.8293778,5.68229743 18.2292147,6.11800309 C17.6290516,6.55370875 17.0470841,7.09833265 16.4832945,7.75189113 C16.0104388,8.31467761 15.514857,9.09984373 14.9965344,10.1074131 C14.4782118,11.1149824 14.0008165,12.0544586 13.5643343,12.9258699 C13.3097196,13.4341932 13.0687487,13.9062006 12.8414142,14.3419062 C12.6140797,14.7776119 12.4094817,15.1497716 12.2276141,15.4583964 C12.1366803,15.5854772 12.0275614,15.6898635 11.9002541,15.7715583 C11.7729468,15.8532531 11.6365481,15.8940999 11.4910541,15.8940999 L6.52609359,15.8940999 L4.5619334,17.9636914 L8.54481378,18.8623298 C8.63574758,18.8804842 8.72213339,18.9167925 8.8039738,18.9712557 C8.88581422,19.0257189 8.96310679,19.0892584 9.03585383,19.161876 C9.12678762,19.2708024 9.64964911,19.8562731 10.604454,20.9183056 C11.5592588,21.9803382 12.4367568,22.9561227 13.2369742,23.8456884 C13.2915345,23.9001516 13.3370007,23.9591525 13.3733742,24.0226929 C13.4097478,24.0862333 13.4370275,24.1543113 13.4552142,24.2269289 L14.2190543,27.5219365 L16.0740945,25.5068079 L16.0740945,20.9591528 C16.0740945,20.832072 16.1013742,20.7095316 16.1559345,20.591528 C16.2104948,20.4735244 16.292334,20.3691381 16.4014545,20.2783661 C16.5651354,20.1331309 16.8561191,19.9425126 17.2744146,19.7065053 C17.6927101,19.4704981 18.2383047,19.1709549 18.9112148,18.8078669 C19.802366,18.2995436 20.8617288,17.7322271 22.0893351,17.1059002 C23.3169413,16.4795733 24.2035325,15.9304109 24.7491353,15.4583964 C25.4766057,14.8048379 26.0040138,14.2193672 26.3313755,13.7019668 C26.6587371,13.1845663 26.9588142,12.5627873 27.2316156,11.8366112 Z" id="path-1"></path>
    </defs>
    <g id="_icons/rocket_32" stroke="none" stroke-width="1" fill="none" fill-rule="evenodd">
        <mask id="mask-2" fill="white">
            <use xlink:href="#path-1"></use>
        </mask>
        <use id="rocket---simple-line-icons" fill="#FFFFFF" xlink:href="#path-1"></use>
    </g>
</svg>